<?xml version="1.0" encoding="UTF-8"?>
<!-- This Source Code Form is subject to the terms of the Mozilla Public
   - License, v. 2.0. If a copy of the MPL was not distributed with this
   - file, You can obtain one at http://mozilla.org/MPL/2.0/. -->
<svg version="1.1" xmlns="http://www.w3.org/2000/svg" x="0px" y="0px" width="32px" height="32px" viewBox="6.5 210 92 147">
  <g id="lightbulb">
    <g id="base">
      <path fill="#000000" fill-opacity=".6" d="M76.3,251.3v-8.1l-48.3,8.9v8L76.3,251.3z M76.3,232.9l-48.3,8.9v8l48.3-8.9V232.9z M73,231.2 c0-0.1,0-0.2,0-0.3c0-2-0.3-3.8-0.9-5.6l0,0v0c-0.1-0.2-0.2-0.4-0.2-0.6c-0.1-0.3-0.2-0.7-0.4-1c0-0.1-0.1-0.2-0.1-0.2l0,0         c-3.2-7-10.6-12-19.4-12c-9.5,0-17.5,5.8-20.1,13.8h29.4l-30.3,5.6l-3,0.5v8.1l4.7-0.9L73,231.2z  "/>
    </g>
    <g id="bulb">
        <path fill="none" stroke-width="10" stroke="#000000" stroke-opacity="0.6" transform="translate(8, 43.5) scale(0.85)" d="M3.6,323 c2.3,24.4,19.7,41.5,48.6,41.5c28.9,0,46.3-17.1,48.6-41.5c1.8-24.7-6.4-32.4-17.3-48.3c-3.5-5-5.7-10.5-7.1-15.7 c0,0-32.9,0.4-33,0H28.1c-1.4,5.2-3.6,10.7-7.1,15.7C10,290.6,1.8,298.3,3.6,323z"/>
    </g>
    <g id="filament">
        <path fill="none" stroke-width="5" stroke="#000000" stroke-opacity="0.6" transform="translate(0, 11.5)" d="M72.7,298.8c-0.2-0.3-0.4-0.5-0.7-2.3l-12.3-37.6c-1.3,0.2-0.8,0.2-1.3,0.2c-0.1,0-0.8,0-0.9,0 c-0.6,0.2-0.4,0.9-0.2,1.5l11.6,35.3c-2.8-1.4-6.3-2-9.2-1.1c-0.6,0.2-1.2,0.5-1.7,0.8l-4.9-1.5c-2.1,0-4.2,0.7-5.7,1.9 c-0.9-0.5-1.9-0.8-3-1.1c-3.3-0.8-6.2-0.6-8.6,0.6l11.4-34.8c0.2-0.6,0.4-1.6,0.3-1.6c-2.6-0.1-2.6,0.1-2.5,0.8l-12.5,38.2 c-0.1,0.1-0.2,0.2-0.3,0.4c-0.4,0.5-0.3,1.2,0.2,1.6c0.5,0.4,1.2,0.3,1.6-0.2c2.3-2.9,5.6-3.8,9.8-2.7c0.5,0.1,1.2,0.3,1.9,0.7 c-0.7,1.1-1.1,2.4-1,3.6c0.1,2.6,1,4.4,2.4,5.1c0.8,0.4,1.7,0.4,2.5-0.1c1.2-0.8,1.8-2.7,1.6-5.1c-0.1-1.5-0.8-2.8-1.9-3.9 c1.9-1.2,4.8-1.3,6.9-0.2c-0.8,1.1-1.2,2.5-1.3,4.1c-0.1,2.3,0.6,4.1,1.9,4.9c0.8,0.5,1.8,0.5,2.7,0.1c1.3-0.8,2.1-2.6,2-4.9 c0-1.5-0.6-3-1.6-4.2c0.2-0.1,0.3-0.1,0.5-0.2c3.5-1.1,8.6,0.9,10.5,3.2c0.4,0.5,1.1,0.6,1.6,0.2C73,300,73.1,299.3,72.7,298.8z M48.2,304.5C48.2,304.5,48.2,304.5,48.2,304.5c-0.1,0-0.1,0-0.1,0c-0.3-0.2-1-1.1-1.1-3.1c0-0.8,0.2-1.6,0.6-2.3 c0.7,0.6,1.1,1.4,1.2,2.4C49,303.3,48.6,304.3,48.2,304.5z M58.3,304.3c0,0-0.1,0-0.1,0s-0.1,0-0.2-0.1c-0.3-0.2-0.9-1-0.8-2.8 c0.1-1.1,0.3-2,0.8-2.8c0.7,0.8,1.1,1.7,1.1,2.7C59.1,303.3,58.6,304.1,58.3,304.3z"/>
    </g>
  </g>
</svg>
